<?xml version="1.0" encoding="UTF-8"?> <svg xmlns="http://www.w3.org/2000/svg" width="588" height="220" viewBox="0 0 588 220" fill="none"> <g clip-path="url(#clip0_16_3827)"> <path d="M380.178 12H382.178V8H380.178V12ZM306.883 479.5L306.486 481.46L306.883 479.5ZM517.883 984L500.449 968.854L496.049 991.525L517.883 984ZM380.178 8C379.517 8 378.564 8.20053 377.543 8.46352C376.442 8.74684 375.03 9.16711 373.337 9.725C369.948 10.8419 365.372 12.531 359.809 14.8353C348.679 19.4449 333.556 26.5339 316.017 36.4725C280.94 56.3483 236.155 87.645 194.316 133.343C110.576 224.804 38.7833 373.806 79.9559 603.866L83.8933 603.161C42.9505 374.385 114.328 226.629 197.266 136.044C238.765 90.7174 283.196 59.6676 317.989 39.9527C335.384 30.096 350.359 23.0787 361.339 18.5308C366.831 16.2564 371.312 14.6039 374.589 13.524C376.229 12.9835 377.552 12.5915 378.54 12.3372C379.035 12.2098 379.429 12.1212 379.728 12.0656C380.052 12.0053 380.18 12 380.178 12V8ZM79.9559 603.866C100.518 718.762 142.03 772.824 189.305 787.34C236.525 801.84 288.276 776.506 328.427 735.558C368.63 694.557 397.832 637.307 399.806 586.64C400.794 561.264 394.952 537.437 380.11 518.189C365.263 498.933 341.574 484.475 307.279 477.54L306.486 481.46C340.06 488.25 362.808 502.3 376.943 520.632C391.084 538.972 396.77 561.813 395.809 586.484C393.884 635.909 365.276 692.264 325.571 732.758C285.812 773.305 235.555 797.358 190.479 783.517C145.459 769.692 104.389 717.683 83.8933 603.161L79.9559 603.866ZM307.279 477.54C229.348 461.78 174.274 479.562 142.794 517.183C111.38 554.725 103.938 611.472 120.009 672.677C152.166 795.151 278.64 936.576 499.8 982.528L500.614 978.612C280.742 932.928 155.601 792.482 123.877 671.662C108.007 611.22 115.559 555.964 145.862 519.75C176.099 483.614 229.465 465.884 306.486 481.46L307.279 477.54Z" fill="black"></path> </g> <defs> <clipPath id="clip0_16_3827"> <rect width="588" height="220" fill="white"></rect> </clipPath> </defs> </svg> 