<?xml version="1.0" encoding="UTF-8" standalone="no"?>
<!-- Created with Inkscape (http://www.inkscape.org/) -->

<svg
    width="84.666687mm"
    height="16.532661mm"
    viewBox="0 0 84.666687 16.532661"
    version="1.1"
    id="svg41312"
    xml:space="preserve"
    inkscape:version="1.2.2 (732a01da63, 2022-12-09)"
    sodipodi:docname="logo_final.svg"
    xmlns:inkscape="http://www.inkscape.org/namespaces/inkscape"
    xmlns:sodipodi="http://sodipodi.sourceforge.net/DTD/sodipodi-0.dtd"
    xmlns="http://www.w3.org/2000/svg"
    xmlns:svg="http://www.w3.org/2000/svg">
    <sodipodi:namedview
        id="namedview41314"
        pagecolor="#cc0000"
        bordercolor="#cc0000"
        borderopacity="1.0"
        inkscape:showpageshadow="2"
        inkscape:pageopacity="0.0"
        inkscape:pagecheckerboard="0"
        inkscape:deskcolor="#d1d1d1"
        inkscape:document-units="mm"
        showgrid="false"
        inkscape:zoom="0.25"
        inkscape:cx="3500"
        inkscape:cy="908"
        inkscape:window-width="1920"
        inkscape:window-height="1137"
        inkscape:window-x="-8"
        inkscape:window-y="-8"
        inkscape:window-maximized="1"
        inkscape:current-layer="layer1"
        showguides="false"><sodipodi:guide
        position="-409.63817,-145.86462"
        orientation="0,-1"
        id="guide5939"
        inkscape:locked="false"/><sodipodi:guide
        position="-409.63817,-170.85302"
        orientation="0,-1"
        id="guide5941"
        inkscape:locked="false"/><sodipodi:guide
        position="-409.79191,-180.85389"
        orientation="0,-1"
        id="guide5943"
        inkscape:locked="false"/><sodipodi:guide
        position="-649.52968,-155.86876"
        orientation="0,-1"
        id="guide5953"
        inkscape:locked="false"/><sodipodi:guide
        position="-788.88758,-210.87441"
        orientation="1,0"
        id="guide7610"
        inkscape:locked="false"/><sodipodi:guide
        position="-549.68946,-243.45332"
        orientation="0,-1"
        id="guide10359"
        inkscape:locked="false"/><sodipodi:guide
        position="-644.58568,-279.33419"
        orientation="1,0"
        id="guide10373"
        inkscape:locked="false"/><sodipodi:guide
        position="-634.70909,-280.04252"
        orientation="0,-1"
        id="guide10375"
        inkscape:locked="false"/><sodipodi:guide
        position="-788.88758,-123.85464"
        orientation="0,-1"
        id="guide31175"
        inkscape:locked="false"/><sodipodi:guide
        position="-649.71047,-210.87439"
        orientation="0,-1"
        id="guide31177"
        inkscape:locked="false"/><sodipodi:guide
        position="-554.68905,-417.65244"
        orientation="0,-1"
        id="guide31179"
        inkscape:locked="false"/></sodipodi:namedview><defs id="defs41309"/>
    <g
        inkscape:label="Layer 1"
        inkscape:groupmode="layer"
        id="layer1"
        transform="translate(-1281.3142,5.0806631)">
        <g
            id="use999787"
            style="fill:#cc0000;fill-opacity:1;stroke-width:5.26351"
            transform="matrix(0.18998727,0,0,0.18998727,1188.4727,-30.787201)"
            inkscape:export-filename="..\..\..\logo_ru.svg"
            inkscape:export-xdpi="96"
            inkscape:export-ydpi="96">
            <g id="g1000178" style="fill:#cc0000;fill-opacity:1"><path
                style="color:#000000;fill:#cc0000;fill-opacity:1;stroke:none;-inkscape-stroke:none;paint-order:markers stroke fill"
                d="m 488.67187,135.30664 v 87.01953 h 7.50782 v -79.51172 h 18.75 c 5.49464,0 10.8527,0.5583 16.02734,1.61719 5.17463,1.05888 10.16503,2.61972 14.91992,4.63086 4.75487,2.01115 9.2735,4.47207 13.50391,7.33008 4.23039,2.858 8.17328,6.11272 11.77148,9.71094 3.59822,3.59822 6.85295,7.53912 9.71094,11.76953 2.858,4.2304 5.31894,8.75098 7.33008,13.50586 2.01114,4.75488 3.57198,9.74528 4.63086,14.91992 1.05888,5.17463 1.61523,10.5327 1.61523,16.02734 h 7.50782 c 0,-6.00183 -0.60814,-11.86716 -1.76758,-17.5332 -1.15944,-5.66605 -2.86999,-11.13306 -5.07227,-16.33985 -2.20228,-5.20679 -4.89614,-10.15417 -8.02344,-14.7832 -3.1273,-4.62904 -6.68729,-8.93923 -10.62304,-12.875 -3.93575,-3.93577 -8.24794,-7.49573 -12.87696,-10.62305 -4.62902,-3.1273 -9.57642,-5.8231 -14.7832,-8.02539 -5.20678,-2.20227 -10.67184,-3.91087 -16.33789,-5.07031 -5.66605,-1.15945 -11.53137,-1.76953 -17.5332,-1.76953 z"
                id="path1000172"/><path
                style="color:#000000;fill:#cc0000;fill-opacity:1;stroke:none;-inkscape-stroke:none;paint-order:markers stroke fill"
                d="m 499.92383,154.95898 v 67.36719 h 7.50781 V 162.4668 h 7.49805 c 4.13797,0 8.17105,0.41969 12.0664,1.21679 3.89535,0.7971 7.6531,1.97241 11.23243,3.48633 3.57932,1.51393 6.98109,3.36589 10.16601,5.51758 3.18491,2.15168 6.15219,4.60336 8.86133,7.3125 2.70914,2.70914 5.15886,5.67642 7.31055,8.86133 2.15169,3.18492 4.0056,6.58669 5.51953,10.16601 1.51392,3.57933 2.68923,7.33512 3.48633,11.23047 0.7971,3.89536 1.21484,7.93039 1.21484,12.06836 h 7.50976 c 0,-4.64516 -0.47148,-9.18551 -1.36914,-13.57226 -0.89765,-4.38677 -2.22267,-8.61917 -3.92773,-12.65039 -1.70507,-4.03123 -3.78993,-7.86176 -6.21094,-11.44532 -2.42099,-3.58354 -5.17792,-6.9201 -8.22461,-9.96679 -3.04669,-3.04669 -6.38325,-5.80362 -9.96679,-8.22461 -3.58356,-2.42101 -7.41409,-4.50587 -11.44532,-6.21094 -4.03122,-1.70506 -8.26362,-3.03008 -12.65039,-3.92774 -4.38675,-0.89765 -8.9271,-1.36914 -13.57226,-1.36914 z"
                id="path1000174"/><path
                style="color:#000000;fill:#cc0000;fill-opacity:1;stroke:none;-inkscape-stroke:none;paint-order:markers stroke fill"
                d="m 511.17578,174.60547 v 47.7207 h 7.50781 v -39.83398 c 1.45559,0.13684 2.94856,0.14999 4.35352,0.4375 2.61649,0.53542 5.13881,1.32491 7.54297,2.34179 2.40416,1.01688 4.69029,2.26142 6.83008,3.70704 2.13978,1.44561 4.1347,3.09172 5.95507,4.9121 1.82038,1.82038 3.46651,3.8153 4.91211,5.95508 1.44561,2.13977 2.69016,4.42397 3.70703,6.82813 1.01688,2.40417 1.80639,4.92844 2.3418,7.54492 0.53541,2.61649 0.81641,5.32567 0.81641,8.10742 h 7.50781 c 0,-3.28892 -0.33278,-6.50537 -0.96875,-9.61328 -0.63597,-3.10789 -1.5752,-6.10682 -2.7832,-8.96289 -1.20801,-2.85605 -2.68546,-5.569 -4.40039,-8.10742 -1.71491,-2.53841 -3.6663,-4.90262 -5.82422,-7.06055 -2.15792,-2.15793 -4.52214,-4.10929 -7.06055,-5.82422 -2.53841,-1.71492 -5.25135,-3.19432 -8.10742,-4.40234 -2.85606,-1.20802 -5.85499,-2.14527 -8.96289,-2.78125 -3.1079,-0.63598 -6.32436,-0.96874 -9.61328,-0.96875 z"
                id="path1000176"/></g>
        </g>
    </g>
</svg>